<svg version="1.1" id="Layer_1" xmlns="http://www.w3.org/2000/svg" xmlns:xlink="http://www.w3.org/1999/xlink" x="0px" y="0px"
	 width="100%" viewBox="0 0 314 120" enable-background="new 0 0 314 120" xml:space="preserve">
<path fill="#FFFFFF" opacity="1.000000" stroke="none" 
	d="
M315.000000,40.000000 
	C315.000000,53.687561 315.000000,67.375122 314.549744,81.531342 
	C312.831604,82.000000 311.563690,82.000000 309.795227,82.000000 
	C309.795227,93.906563 309.795227,105.422516 309.795227,117.220039 
	C298.229370,117.220039 287.169342,117.220039 276.000000,117.220039 
	C276.000000,118.680862 276.000000,119.840431 276.000000,121.000000 
	C197.645767,121.000000 119.291542,121.000000 40.468658,120.549736 
	C40.000000,118.831566 40.000000,117.563652 40.000000,115.793579 
	C28.425554,115.793579 17.241547,115.793579 5.778169,115.793579 
	C5.778169,104.217224 5.778169,93.148338 5.778169,82.000000 
	C3.985350,82.000000 2.492675,82.000000 1.000000,82.000000 
	C1.000000,68.312439 1.000000,54.624878 1.450267,40.468658 
	C3.168433,40.000000 4.436333,40.000000 6.204797,40.000000 
	C6.204797,28.093424 6.204797,16.577471 6.204797,4.779955 
	C17.770645,4.779955 28.830603,4.779955 40.000000,4.779955 
	C40.000000,3.318899 40.000000,2.159450 40.000000,1.000000 
	C118.354225,1.000000 196.708450,1.000000 275.531342,1.450266 
	C276.000000,3.168442 276.000000,4.436353 276.000000,6.206430 
	C287.574310,6.206430 298.756866,6.206430 310.221832,6.206430 
	C310.221832,17.782785 310.221832,28.851677 310.221832,40.000000 
	C312.014648,40.000000 313.507324,40.000000 315.000000,40.000000 
M63.996212,67.445274 
	C63.996212,65.754707 63.996212,64.064133 63.996212,62.373566 
	C64.488998,62.338600 64.981781,62.303635 65.474564,62.268669 
	C66.101608,69.460640 66.728661,76.652618 67.358971,83.882080 
	C70.205559,83.882080 72.833191,83.882080 76.173477,83.882080 
	C77.558342,67.637054 78.938255,51.450089 80.318031,35.264725 
	C77.710083,35.264725 75.957481,35.264725 74.126862,35.264725 
	C73.402443,42.953468 72.702667,50.380695 72.002892,57.807926 
	C71.535217,57.838825 71.067543,57.869728 70.599869,57.900631 
	C69.985092,50.369781 69.370316,42.838932 68.747459,35.209175 
	C66.142525,35.209175 63.722839,35.209175 61.059254,35.209175 
	C60.267822,43.497955 59.493916,51.603233 58.720005,59.708511 
	C58.334312,59.753250 57.948620,59.797989 57.562927,59.842728 
	C56.937023,51.677238 56.311119,43.511753 55.673477,35.193127 
	C53.528530,35.193127 51.456821,35.193127 48.650261,35.193127 
	C50.069042,51.625660 51.465668,67.801552 52.849274,83.826660 
	C56.369183,83.826660 58.998833,83.826660 61.836395,83.826660 
	C62.555069,78.566307 63.253559,73.453682 63.996212,67.445274 
M127.000000,61.499950 
	C127.000000,52.735764 127.000000,43.971577 127.000000,35.255112 
	C124.745682,35.255112 123.009155,35.255112 120.929230,35.255112 
	C120.929230,42.523308 120.929230,49.545303 120.929230,56.567299 
	C120.566055,56.630367 120.202888,56.693436 119.839714,56.756504 
	C118.162125,49.563301 116.484528,42.370098 114.824226,35.251053 
	C111.769646,35.251053 109.023697,35.251053 106.215363,35.251053 
	C106.215363,51.562202 106.215363,67.621452 106.215363,83.796875 
	C108.167923,83.796875 109.903519,83.796875 111.963257,83.796875 
	C111.963257,74.545662 111.963257,65.490036 111.963257,55.779343 
	C112.913925,56.670593 113.655182,57.025200 113.765068,57.520020 
	C115.229141,64.112564 116.735962,70.700424 117.966881,77.338638 
	C119.290581,84.477272 119.562393,84.771896 127.000000,83.362968 
	C127.000000,76.435966 127.000000,69.467926 127.000000,61.499950 
M223.000000,73.475136 
	C223.000000,60.719376 223.000000,47.963619 223.000000,35.256115 
	C220.744171,35.256115 219.007568,35.256115 216.926651,35.256115 
	C216.926651,42.524445 216.926651,49.545551 216.926651,56.566662 
	C216.564346,56.629364 216.202042,56.692070 215.839722,56.754776 
	C214.161972,49.561066 212.484207,42.367355 210.824966,35.253044 
	C207.765411,35.253044 205.019669,35.253044 202.217773,35.253044 
	C202.217773,51.566917 202.217773,67.626877 202.217773,83.793747 
	C204.175751,83.793747 205.909821,83.793747 207.970398,83.793747 
	C207.970398,74.541862 207.970398,65.488731 207.970398,55.770992 
	C208.922287,56.673687 209.659180,57.031631 209.769394,57.528568 
	C211.231750,64.121864 212.734360,70.710854 213.967682,77.349083 
	C215.292068,84.477524 215.592361,84.788452 223.000000,83.354156 
	C223.000000,80.417984 223.000000,77.440773 223.000000,73.475136 
M83.000000,70.415176 
	C83.000237,72.574730 82.681236,74.794113 83.072281,76.880417 
	C83.730392,80.391464 84.882805,83.882332 88.934349,84.922409 
	C96.427200,86.845886 102.602043,82.719795 102.900978,74.984436 
	C103.298409,64.700462 103.621346,54.338734 102.785629,44.107662 
	C102.205200,37.001873 99.888657,33.384720 90.992805,33.971645 
	C85.486412,34.334949 83.003777,37.616337 83.000755,45.017853 
	C82.997429,53.157650 83.000000,61.297443 83.000000,70.415176 
M161.000000,77.419220 
	C161.000000,72.324753 161.000000,67.230278 161.000000,62.296642 
	C163.660889,62.296642 165.728592,62.296642 168.167114,62.296642 
	C168.167114,69.664848 168.167114,76.743011 168.167114,83.726730 
	C170.624146,83.726730 172.693451,83.726730 174.764069,83.726730 
	C174.764069,67.396545 174.764069,51.340721 174.764069,35.227859 
	C172.456406,35.227859 170.389099,35.227859 167.947327,35.227859 
	C167.947327,41.857262 167.947327,48.270981 167.947327,54.793892 
	C165.496964,54.793892 163.430756,54.793892 160.983978,54.793892 
	C160.983978,48.187523 160.983978,41.773228 160.983978,35.187088 
	C158.535477,35.187088 156.469391,35.187088 154.321747,35.187088 
	C154.321747,51.553722 154.321747,67.736839 154.321747,83.669899 
	C156.726135,83.669899 158.788605,83.669899 161.000000,83.669899 
	C161.000000,81.692879 161.000000,80.042389 161.000000,77.419220 
M183.999863,80.269196 
	C183.999863,78.528076 183.999863,76.786957 183.999863,75.159454 
	C186.668716,75.159454 188.634064,75.159454 190.698593,75.159454 
	C191.315613,78.205162 191.906693,81.122864 192.447601,83.792969 
	C194.777481,83.792969 196.726990,83.792969 199.350952,83.792969 
	C197.133255,67.377571 194.955032,51.254410 192.795715,35.271202 
	C189.282410,35.271202 186.195175,35.271202 183.173279,35.271202 
	C180.989059,51.564758 178.841599,67.583946 176.591171,84.371315 
	C179.791428,83.309418 183.282806,85.862221 183.999863,80.269196 
M245.999191,42.017117 
	C243.617004,34.523567 241.573578,33.187527 233.969391,33.991188 
	C229.068039,34.509205 227.283142,38.288776 227.149628,42.087215 
	C226.740509,53.727074 226.753571,65.398903 227.148727,77.039749 
	C227.271637,80.660690 229.100784,84.283302 233.599152,84.984711 
	C239.799286,85.951500 243.524475,84.771919 244.825134,79.990387 
	C246.115707,75.245895 245.901978,70.092209 246.368942,64.884308 
	C243.610367,65.030548 241.861069,65.123283 239.987930,65.222588 
	C239.987930,68.301796 240.334137,71.021881 239.842560,73.581047 
	C239.594940,74.870087 237.827301,75.867157 236.746994,76.996254 
	C235.831406,75.740417 234.154190,74.503586 234.122284,73.225693 
	C233.893845,64.074478 233.877472,54.911629 234.122498,45.761272 
	C234.162735,44.259060 235.820053,42.800148 236.730011,41.321224 
	C237.818222,42.758064 239.406891,44.052879 239.865372,45.668434 
	C240.413361,47.599300 239.994659,49.804523 239.994659,52.079903 
	C242.390762,51.957630 244.128387,51.868961 245.999954,51.773460 
	C245.999954,48.542313 245.999954,45.724323 245.999191,42.017117 
M131.000000,69.438995 
	C131.000244,71.935104 130.632126,74.500664 131.086594,76.911133 
	C131.777481,80.575401 132.994965,84.203445 137.476395,84.981323 
	C143.439438,86.016373 147.552032,84.712708 148.794342,80.116432 
	C150.080307,75.358612 149.921234,70.210205 150.390411,65.272957 
	C147.710342,65.272957 145.968292,65.272957 143.824661,65.272957 
	C143.824661,68.505005 144.112350,71.514839 143.667236,74.412094 
	C143.513260,75.414284 141.604660,76.619057 140.368134,76.788849 
	C139.724472,76.877220 138.125488,74.926758 138.106094,73.876068 
	C137.928131,64.227791 137.907639,54.572823 138.117477,44.925812 
	C138.144775,43.670753 139.736267,42.449715 140.603241,41.212921 
	C141.682526,42.302120 143.379608,43.233875 143.706070,44.514927 
	C144.295135,46.826382 144.064377,49.346764 144.174484,51.746304 
	C146.258514,51.746304 147.995590,51.746304 150.000000,51.746304 
	C150.000000,49.025639 150.013199,46.554951 149.997513,44.084446 
	C149.952118,36.934242 147.155853,34.484673 140.557907,33.860744 
	C134.364304,33.275047 130.866074,38.448402 130.963211,43.995331 
	C131.105942,52.146744 131.000000,60.302509 131.000000,69.438995 
M257.000000,70.465034 
	C257.000000,67.694382 257.000000,64.923721 257.000000,61.794083 
	C260.340820,61.794083 263.091919,61.794083 265.704895,61.794083 
	C265.704895,59.335461 265.704895,57.262402 265.704895,54.801834 
	C262.668518,54.801834 259.926208,54.801834 257.298401,54.801834 
	C257.298401,50.321941 257.298401,46.246342 257.298401,41.798637 
	C261.015869,41.798637 264.436401,41.798637 267.700653,41.798637 
	C267.700653,39.327404 267.700653,37.257870 267.700653,35.302872 
	C261.657562,35.302872 255.917862,35.302872 250.306686,35.302872 
	C250.306686,51.680267 250.306686,67.753166 250.306686,83.701599 
	C256.369843,83.701599 262.123016,83.701599 267.693817,83.701599 
	C267.693817,81.313728 267.693817,79.240852 267.693817,76.784988 
	C263.979156,76.784988 260.568970,76.784988 257.000000,76.784988 
	C257.000000,74.734901 257.000000,73.083832 257.000000,70.465034 
M279.050354,31.276682 
	C279.468262,31.781446 279.879974,32.291508 280.305145,32.790100 
	C283.010132,35.962418 286.398529,36.020695 289.432983,33.883392 
	C292.519897,31.709131 294.296509,28.643963 291.919128,24.637831 
	C289.694916,20.889778 286.053650,19.799850 282.649689,21.360048 
	C279.271454,22.908438 276.955017,26.150013 279.050354,31.276682 
z"/>
<path fill="#000000" opacity="1.000000" stroke="none" 
	d="
M315.000000,39.531342 
	C313.507324,40.000000 312.014648,40.000000 310.221832,40.000000 
	C310.221832,28.851677 310.221832,17.782785 310.221832,6.206430 
	C298.756866,6.206430 287.574310,6.206430 276.000000,6.206430 
	C276.000000,4.436353 276.000000,3.168442 276.000000,1.450266 
	C288.926636,1.000000 301.853302,1.000000 315.000000,1.000000 
	C315.000000,13.686713 315.000000,26.374699 315.000000,39.531342 
z"/>
<path fill="#000000" opacity="1.000000" stroke="none" 
	d="
M1.000000,82.468658 
	C2.492675,82.000000 3.985350,82.000000 5.778169,82.000000 
	C5.778169,93.148338 5.778169,104.217224 5.778169,115.793579 
	C17.241547,115.793579 28.425554,115.793579 40.000000,115.793579 
	C40.000000,117.563652 40.000000,118.831566 40.000000,120.549736 
	C27.073357,121.000000 14.146712,121.000000 1.000000,121.000000 
	C1.000000,108.313286 1.000000,95.625305 1.000000,82.468658 
z"/>
<path fill="#000000" opacity="1.000000" stroke="none" 
	d="
M276.468658,121.000000 
	C276.000000,119.840431 276.000000,118.680862 276.000000,117.220039 
	C287.169342,117.220039 298.229370,117.220039 309.795227,117.220039 
	C309.795227,105.422516 309.795227,93.906563 309.795227,82.000000 
	C311.563690,82.000000 312.831604,82.000000 314.549744,82.000000 
	C315.000000,94.926643 315.000000,107.853287 315.000000,121.000000 
	C302.313293,121.000000 289.625305,121.000000 276.468658,121.000000 
z"/>
<path fill="#000000" opacity="1.000000" stroke="none" 
	d="
M39.531342,1.000000 
	C40.000000,2.159450 40.000000,3.318899 40.000000,4.779955 
	C28.830603,4.779955 17.770645,4.779955 6.204797,4.779955 
	C6.204797,16.577471 6.204797,28.093424 6.204797,40.000000 
	C4.436333,40.000000 3.168433,40.000000 1.450267,40.000000 
	C1.000000,27.073353 1.000000,14.146708 1.000000,1.000000 
	C13.686713,1.000000 26.374699,1.000000 39.531342,1.000000 
z"/>
<path fill="#000000" opacity="1.000000" stroke="none" 
	d="
M63.974129,67.893166 
	C63.253559,73.453682 62.555069,78.566307 61.836395,83.826660 
	C58.998833,83.826660 56.369183,83.826660 52.849274,83.826660 
	C51.465668,67.801552 50.069042,51.625660 48.650261,35.193127 
	C51.456821,35.193127 53.528530,35.193127 55.673477,35.193127 
	C56.311119,43.511753 56.937023,51.677238 57.562927,59.842728 
	C57.948620,59.797989 58.334312,59.753250 58.720005,59.708511 
	C59.493916,51.603233 60.267822,43.497955 61.059254,35.209175 
	C63.722839,35.209175 66.142525,35.209175 68.747459,35.209175 
	C69.370316,42.838932 69.985092,50.369781 70.599869,57.900631 
	C71.067543,57.869728 71.535217,57.838825 72.002892,57.807926 
	C72.702667,50.380695 73.402443,42.953468 74.126862,35.264725 
	C75.957481,35.264725 77.710083,35.264725 80.318031,35.264725 
	C78.938255,51.450089 77.558342,67.637054 76.173477,83.882080 
	C72.833191,83.882080 70.205559,83.882080 67.358971,83.882080 
	C66.728661,76.652618 66.101608,69.460640 65.474564,62.268669 
	C64.981781,62.303635 64.488998,62.338600 63.996212,62.373566 
	C63.996212,64.064133 63.996212,65.754707 63.974129,67.893166 
z"/>
<path fill="#000000" opacity="1.000000" stroke="none" 
	d="
M127.000000,61.999916 
	C127.000000,69.467926 127.000000,76.435966 127.000000,83.362968 
	C119.562393,84.771896 119.290581,84.477272 117.966881,77.338638 
	C116.735962,70.700424 115.229141,64.112564 113.765068,57.520020 
	C113.655182,57.025200 112.913925,56.670593 111.963257,55.779343 
	C111.963257,65.490036 111.963257,74.545662 111.963257,83.796875 
	C109.903519,83.796875 108.167923,83.796875 106.215363,83.796875 
	C106.215363,67.621452 106.215363,51.562202 106.215363,35.251053 
	C109.023697,35.251053 111.769646,35.251053 114.824226,35.251053 
	C116.484528,42.370098 118.162125,49.563301 119.839714,56.756504 
	C120.202888,56.693436 120.566055,56.630367 120.929230,56.567299 
	C120.929230,49.545303 120.929230,42.523308 120.929230,35.255112 
	C123.009155,35.255112 124.745682,35.255112 127.000000,35.255112 
	C127.000000,43.971577 127.000000,52.735764 127.000000,61.999916 
z"/>
<path fill="#000000" opacity="1.000000" stroke="none" 
	d="
M223.000000,73.969345 
	C223.000000,77.440773 223.000000,80.417984 223.000000,83.354156 
	C215.592361,84.788452 215.292068,84.477524 213.967682,77.349083 
	C212.734360,70.710854 211.231750,64.121864 209.769394,57.528568 
	C209.659180,57.031631 208.922287,56.673687 207.970398,55.770992 
	C207.970398,65.488731 207.970398,74.541862 207.970398,83.793747 
	C205.909821,83.793747 204.175751,83.793747 202.217773,83.793747 
	C202.217773,67.626877 202.217773,51.566917 202.217773,35.253044 
	C205.019669,35.253044 207.765411,35.253044 210.824966,35.253044 
	C212.484207,42.367355 214.161972,49.561066 215.839722,56.754776 
	C216.202042,56.692070 216.564346,56.629364 216.926651,56.566662 
	C216.926651,49.545551 216.926651,42.524445 216.926651,35.256115 
	C219.007568,35.256115 220.744171,35.256115 223.000000,35.256115 
	C223.000000,47.963619 223.000000,60.719376 223.000000,73.969345 
z"/>
<path fill="#000000" opacity="1.000000" stroke="none" 
	d="
M83.000000,69.926208 
	C83.000000,61.297443 82.997429,53.157650 83.000755,45.017853 
	C83.003777,37.616337 85.486412,34.334949 90.992805,33.971645 
	C99.888657,33.384720 102.205200,37.001873 102.785629,44.107662 
	C103.621346,54.338734 103.298409,64.700462 102.900978,74.984436 
	C102.602043,82.719795 96.427200,86.845886 88.934349,84.922409 
	C84.882805,83.882332 83.730392,80.391464 83.072281,76.880417 
	C82.681236,74.794113 83.000237,72.574730 83.000000,69.926208 
M90.000000,59.500244 
	C90.000168,64.145821 89.833832,68.801414 90.112122,73.430267 
	C90.185982,74.658775 91.626152,75.805145 92.438988,76.989220 
	C93.620140,75.971077 95.798111,74.980339 95.826965,73.930519 
	C96.091293,64.314903 96.091293,54.686047 95.827019,45.070435 
	C95.798157,44.020294 93.620773,43.029205 92.439934,42.010727 
	C91.626785,43.194508 90.195511,44.336613 90.112373,45.569614 
	C89.822838,49.863850 90.000160,54.189564 90.000000,59.500244 
z"/>
<path fill="#000000" opacity="1.000000" stroke="none" 
	d="
M161.000000,77.905563 
	C161.000000,80.042389 161.000000,81.692879 161.000000,83.669899 
	C158.788605,83.669899 156.726135,83.669899 154.321747,83.669899 
	C154.321747,67.736839 154.321747,51.553722 154.321747,35.187088 
	C156.469391,35.187088 158.535477,35.187088 160.983978,35.187088 
	C160.983978,41.773228 160.983978,48.187523 160.983978,54.793892 
	C163.430756,54.793892 165.496964,54.793892 167.947327,54.793892 
	C167.947327,48.270981 167.947327,41.857262 167.947327,35.227859 
	C170.389099,35.227859 172.456406,35.227859 174.764069,35.227859 
	C174.764069,51.340721 174.764069,67.396545 174.764069,83.726730 
	C172.693451,83.726730 170.624146,83.726730 168.167114,83.726730 
	C168.167114,76.743011 168.167114,69.664848 168.167114,62.296642 
	C165.728592,62.296642 163.660889,62.296642 161.000000,62.296642 
	C161.000000,67.230278 161.000000,72.324753 161.000000,77.905563 
z"/>
<path fill="#000000" opacity="1.000000" stroke="none" 
	d="
M183.998962,80.720383 
	C183.282806,85.862221 179.791428,83.309418 176.591171,84.371315 
	C178.841599,67.583946 180.989059,51.564758 183.173279,35.271202 
	C186.195175,35.271202 189.282410,35.271202 192.795715,35.271202 
	C194.955032,51.254410 197.133255,67.377571 199.350952,83.792969 
	C196.726990,83.792969 194.777481,83.792969 192.447601,83.792969 
	C191.906693,81.122864 191.315613,78.205162 190.698593,75.159454 
	C188.634064,75.159454 186.668716,75.159454 183.999863,75.159454 
	C183.999863,76.786957 183.999863,78.528076 183.998962,80.720383 
M189.999802,64.549507 
	C189.400696,60.441956 188.801590,56.334408 188.202484,52.226856 
	C187.858490,52.275146 187.514511,52.323437 187.170517,52.371727 
	C186.532318,57.442619 185.894104,62.513512 185.208115,67.964157 
	C187.046906,67.381050 190.107224,69.961876 189.999802,64.549507 
z"/>
<path fill="#000000" opacity="1.000000" stroke="none" 
	d="
M245.999573,42.461723 
	C245.999954,45.724323 245.999954,48.542313 245.999954,51.773460 
	C244.128387,51.868961 242.390762,51.957630 239.994659,52.079903 
	C239.994659,49.804523 240.413361,47.599300 239.865372,45.668434 
	C239.406891,44.052879 237.818222,42.758064 236.730011,41.321220 
	C235.820053,42.800148 234.162735,44.259060 234.122498,45.761272 
	C233.877472,54.911629 233.893845,64.074478 234.122284,73.225693 
	C234.154190,74.503586 235.831406,75.740417 236.746979,76.996246 
	C237.827301,75.867157 239.594940,74.870087 239.842560,73.581047 
	C240.334137,71.021881 239.987930,68.301796 239.987930,65.222588 
	C241.861069,65.123283 243.610367,65.030548 246.368942,64.884308 
	C245.901978,70.092209 246.115707,75.245895 244.825134,79.990387 
	C243.524475,84.771919 239.799286,85.951500 233.599152,84.984711 
	C229.100784,84.283302 227.271637,80.660690 227.148727,77.039749 
	C226.753571,65.398903 226.740509,53.727074 227.149628,42.087215 
	C227.283142,38.288776 229.068039,34.509205 233.969391,33.991188 
	C241.573578,33.187527 243.617004,34.523567 245.999573,42.461723 
z"/>
<path fill="#000000" opacity="1.000000" stroke="none" 
	d="
M131.000000,68.947708 
	C131.000000,60.302509 131.105942,52.146744 130.963211,43.995331 
	C130.866074,38.448402 134.364304,33.275047 140.557907,33.860744 
	C147.155853,34.484673 149.952118,36.934242 149.997513,44.084446 
	C150.013199,46.554951 150.000000,49.025639 150.000000,51.746304 
	C147.995590,51.746304 146.258514,51.746304 144.174484,51.746304 
	C144.064377,49.346764 144.295135,46.826382 143.706070,44.514927 
	C143.379608,43.233875 141.682526,42.302120 140.603241,41.212921 
	C139.736267,42.449715 138.144775,43.670753 138.117477,44.925812 
	C137.907639,54.572823 137.928131,64.227791 138.106094,73.876068 
	C138.125488,74.926758 139.724472,76.877220 140.368134,76.788849 
	C141.604660,76.619057 143.513260,75.414284 143.667236,74.412094 
	C144.112350,71.514839 143.824661,68.505005 143.824661,65.272957 
	C145.968292,65.272957 147.710342,65.272957 150.390411,65.272957 
	C149.921234,70.210205 150.080307,75.358612 148.794342,80.116432 
	C147.552032,84.712708 143.439438,86.016373 137.476395,84.981323 
	C132.994965,84.203445 131.777481,80.575401 131.086594,76.911133 
	C130.632126,74.500664 131.000244,71.935104 131.000000,68.947708 
z"/>
<path fill="#000000" opacity="1.000000" stroke="none" 
	d="
M257.000000,70.948898 
	C257.000000,73.083832 257.000000,74.734901 257.000000,76.784988 
	C260.568970,76.784988 263.979156,76.784988 267.693817,76.784988 
	C267.693817,79.240852 267.693817,81.313728 267.693817,83.701599 
	C262.123016,83.701599 256.369843,83.701599 250.306686,83.701599 
	C250.306686,67.753166 250.306686,51.680267 250.306686,35.302872 
	C255.917862,35.302872 261.657562,35.302872 267.700653,35.302872 
	C267.700653,37.257870 267.700653,39.327404 267.700653,41.798637 
	C264.436401,41.798637 261.015869,41.798637 257.298401,41.798637 
	C257.298401,46.246342 257.298401,50.321941 257.298401,54.801834 
	C259.926208,54.801834 262.668518,54.801834 265.704895,54.801834 
	C265.704895,57.262402 265.704895,59.335461 265.704895,61.794083 
	C263.091919,61.794083 260.340820,61.794083 257.000000,61.794083 
	C257.000000,64.923721 257.000000,67.694382 257.000000,70.948898 
z"/>
<path fill="#ED1C24" opacity="1.000000" stroke="none" 
	d="
M278.989258,30.888674 
	C276.955017,26.150013 279.271454,22.908438 282.649689,21.360048 
	C286.053650,19.799850 289.694916,20.889778 291.919128,24.637831 
	C294.296509,28.643963 292.519897,31.709131 289.432983,33.883392 
	C286.398529,36.020695 283.010132,35.962418 280.305145,32.790100 
	C279.879974,32.291508 279.468262,31.781446 278.989258,30.888674 
z"/>
<path fill="#FFFFFF" opacity="1.000000" stroke="none" 
	d="
M90.000000,59.001778 
	C90.000160,54.189564 89.822838,49.863850 90.112373,45.569614 
	C90.195511,44.336613 91.626785,43.194508 92.439934,42.010727 
	C93.620773,43.029205 95.798157,44.020294 95.827019,45.070435 
	C96.091293,54.686047 96.091293,64.314903 95.826965,73.930519 
	C95.798111,74.980339 93.620140,75.971077 92.438988,76.989220 
	C91.626152,75.805145 90.185982,74.658775 90.112122,73.430267 
	C89.833832,68.801414 90.000168,64.145821 90.000000,59.001778 
z"/>
<path fill="#FFFFFF" opacity="1.000000" stroke="none" 
	d="
M189.999786,64.999741 
	C190.107224,69.961876 187.046906,67.381050 185.208115,67.964157 
	C185.894104,62.513512 186.532318,57.442619 187.170517,52.371727 
	C187.514511,52.323437 187.858490,52.275146 188.202484,52.226856 
	C188.801590,56.334408 189.400696,60.441956 189.999786,64.999741 
z"/>
</svg>